<svg xmlns="http://www.w3.org/2000/svg" viewBox="0 0 120 120" width="120" height="120">
  <defs>
    <linearGradient id="bgGrad" x1="0%" y1="0%" x2="100%" y2="100%">
      <stop offset="0%" style="stop-color:#0f1218;stop-opacity:1" />
      <stop offset="100%" style="stop-color:#141820;stop-opacity:1" />
    </linearGradient>
    <linearGradient id="cyanGrad" x1="0%" y1="0%" x2="100%" y2="0%">
      <stop offset="0%" style="stop-color:#00c8d4;stop-opacity:1" />
      <stop offset="100%" style="stop-color:#4a9eff;stop-opacity:1" />
    </linearGradient>
    <filter id="glow">
      <feGaussianBlur stdDeviation="1.5" result="coloredBlur"/>
      <feMerge>
        <feMergeNode in="coloredBlur"/>
        <feMergeNode in="SourceGraphic"/>
      </feMerge>
    </filter>
  </defs>

  <!-- Background -->
  <rect width="120" height="120" rx="18" fill="url(#bgGrad)"/>
  <rect width="120" height="120" rx="18" fill="none" stroke="#1e2a3a" stroke-width="1.5"/>

  <!-- Gauge arc background -->
  <path d="M 22 80 A 38 38 0 0 1 98 80" fill="none" stroke="#1c2230" stroke-width="6" stroke-linecap="round"/>

  <!-- Gauge arc fill (cyan) -->
  <path d="M 22 80 A 38 38 0 0 1 72 44" fill="none" stroke="url(#cyanGrad)" stroke-width="6" stroke-linecap="round" filter="url(#glow)" opacity="0.9"/>

  <!-- Gauge ticks -->
  <line x1="22" y1="80" x2="26" y2="75" stroke="#2a3a50" stroke-width="1.5" stroke-linecap="round"/>
  <line x1="31" y1="55" x2="35" y2="58" stroke="#2a3a50" stroke-width="1.5" stroke-linecap="round"/>
  <line x1="60" y1="42" x2="60" y2="47" stroke="#2a3a50" stroke-width="1.5" stroke-linecap="round"/>
  <line x1="89" y1="55" x2="85" y2="58" stroke="#2a3a50" stroke-width="1.5" stroke-linecap="round"/>
  <line x1="98" y1="80" x2="94" y2="75" stroke="#2a3a50" stroke-width="1.5" stroke-linecap="round"/>

  <!-- Gauge needle -->
  <line x1="60" y1="80" x2="72" y2="44" stroke="#00d07a" stroke-width="2" stroke-linecap="round" filter="url(#glow)"/>
  <!-- Needle pivot -->
  <circle cx="60" cy="80" r="4" fill="#1c2230" stroke="#00d07a" stroke-width="1.5"/>
  <circle cx="60" cy="80" r="1.5" fill="#00d07a"/>

  <!-- Price chart line (bottom area) -->
  <polyline points="16,100 26,96 36,98 46,92 56,94 66,88 76,90 82,85 92,87 104,80"
    fill="none" stroke="#00c8d4" stroke-width="1.5" stroke-linecap="round" stroke-linejoin="round" opacity="0.5"/>

  <!-- Bottom label -->
  <text x="60" y="114" text-anchor="middle" font-family="'IBM Plex Mono', 'Courier New', monospace" font-size="7" font-weight="600" letter-spacing="3" fill="#3d5068" text-transform="uppercase">COCKPIT</text>
</svg>
